<svg width="90" height="65" viewBox="0 0 90 65" fill="none" xmlns="http://www.w3.org/2000/svg">
<path d="M52 11.0928C56.7724 8.33736 62.2378 7.00239 67.751 7.25195C73.4585 7.51037 78.9613 9.45515 83.5635 12.8408L76.5781 22.3369C73.8539 20.3327 70.5964 19.1813 67.2178 19.0283C63.8392 18.8754 60.4909 19.7277 57.5967 21.4775C54.7025 23.2274 52.3923 25.7964 50.958 28.8594C49.5238 31.9223 49.0299 35.342 49.5391 38.6855C50.0482 42.029 51.5375 45.1464 53.8184 47.6436C56.0993 50.1407 59.0696 51.9057 62.3535 52.7148C65.6373 53.5239 69.0877 53.3411 72.2676 52.1895C75.4474 51.0378 78.2146 48.9692 80.2188 46.2451L89.7139 53.2305C86.3279 57.8328 81.6534 61.3279 76.2812 63.2734C70.9092 65.2189 65.0808 65.528 59.5332 64.1611C53.9855 62.7942 48.9676 59.8125 45.1143 55.5938C41.2609 51.375 38.7449 46.1085 37.8848 40.46C37.87 40.363 37.8565 40.2659 37.8428 40.1689L52.1484 24.2695L40.0342 24.4033C40.1148 24.2216 40.1978 24.0407 40.2822 23.8604C42.6606 18.7813 46.4651 14.5073 51.2285 11.5557H41.8887L29.583 11.3486L21.667 32.2988V0H52V11.0928Z" fill="white"/>
<path d="M28.0342 51.0713L33.2217 45.3047V54.8887H21.667V32.9219L32.5029 32.8018L28.0342 51.0713Z" fill="white"/>
<path d="M18.7773 11.5557H0V0H18.7773V11.5557Z" fill="white"/>
</svg>
